<?xml version="1.0" standalone="no"?>
<!DOCTYPE svg PUBLIC "-//W3C//DTD SVG 20010904//EN"
 "http://www.w3.org/TR/2001/REC-SVG-20010904/DTD/svg10.dtd">
<svg version="1.0" xmlns="http://www.w3.org/2000/svg"
 width="1056.000000pt" height="1218.000000pt" viewBox="0 0 1056.000000 1218.000000"
 preserveAspectRatio="xMidYMid meet">

<g transform="translate(0.000000,1218.000000) scale(0.100000,-0.100000)"
fill="#000000" stroke="none">
<path d="M5290 10233 c-94 -8 -290 -45 -413 -78 -193 -53 -481 -172 -632 -263
-352 -211 -661 -463 -890 -726 -33 -38 -67 -76 -75 -85 -9 -9 -42 -52 -75 -95
-32 -43 -67 -81 -76 -83 -10 -3 -15 -11 -12 -19 4 -10 0 -12 -13 -7 -14 5 -16
3 -11 -11 9 -23 -2 -43 -14 -25 -6 10 -8 6 -7 -11 2 -17 -2 -25 -12 -25 -8 0
-29 -21 -47 -48 -17 -26 -46 -59 -62 -73 -17 -14 -31 -33 -31 -42 0 -8 -3 -12
-7 -9 -9 10 -35 -31 -28 -43 3 -6 2 -10 -3 -10 -6 0 -12 -10 -16 -22 -3 -13
-19 -38 -36 -56 -16 -18 -30 -37 -30 -41 0 -4 -9 -16 -19 -25 -11 -10 -22 -28
-25 -42 -4 -13 -11 -24 -16 -24 -6 0 -10 -6 -10 -12 0 -7 -13 -38 -30 -68 -39
-71 -120 -240 -120 -249 0 -4 -9 -24 -20 -46 -11 -22 -20 -47 -20 -56 0 -9 -9
-42 -20 -75 -11 -32 -22 -67 -25 -79 -3 -11 -18 -71 -35 -134 -17 -62 -33
-143 -36 -180 -4 -36 -10 -73 -15 -82 -5 -10 -10 -52 -11 -95 -2 -44 -7 -82
-11 -85 -12 -9 -10 -135 2 -158 6 -10 10 -31 9 -47 -3 -90 44 -325 90 -449 17
-44 35 -96 42 -115 7 -19 17 -43 21 -52 5 -10 9 -25 9 -33 0 -8 5 -15 10 -15
6 0 10 -7 10 -15 0 -16 58 -136 69 -145 4 -3 18 -23 31 -45 13 -22 35 -51 48
-65 13 -14 30 -37 38 -52 8 -16 18 -28 22 -28 4 0 13 -13 20 -29 7 -15 32 -49
55 -73 23 -25 56 -61 74 -79 17 -19 47 -49 67 -68 20 -19 36 -39 36 -46 0 -7
18 -25 40 -40 22 -15 40 -31 40 -36 0 -23 144 -144 160 -134 5 3 28 -13 51
-35 23 -22 45 -40 49 -40 4 0 17 -11 30 -25 13 -14 28 -25 32 -25 5 0 24 -11
42 -25 18 -14 48 -27 67 -31 39 -6 72 -21 110 -46 15 -10 37 -19 48 -21 12 -2
31 -11 42 -20 10 -9 25 -17 32 -17 7 0 35 -8 63 -19 28 -10 73 -22 100 -25 27
-4 58 -13 69 -20 11 -7 52 -16 90 -20 39 -4 88 -12 110 -17 147 -33 549 -30
768 6 48 8 107 15 131 15 25 0 48 5 51 10 3 6 19 10 35 10 16 0 32 5 35 10 3
6 19 10 36 10 16 0 29 5 29 10 0 6 20 10 44 10 25 0 48 5 51 10 3 6 23 10 43
10 21 0 55 9 77 20 22 11 49 20 61 20 12 0 24 4 26 10 2 5 12 11 23 13 22 4
31 7 85 26 19 7 60 21 90 31 188 63 479 207 675 334 111 73 305 214 305 222 0
6 -34 -9 -50 -21 -17 -15 -137 -76 -194 -99 -230 -95 -691 -133 -916 -76 -19
5 -87 16 -150 25 -186 27 -481 101 -464 118 3 3 12 3 20 0 8 -3 14 0 14 6 0 6
5 11 11 11 8 0 8 -4 1 -12 -8 -10 4 -13 57 -15 37 -1 88 -7 112 -14 24 -7 55
-14 69 -15 104 -11 140 -17 140 -24 0 -4 48 -6 108 -5 62 1 113 -3 121 -9 10
-8 15 -8 18 1 2 7 11 9 19 6 16 -6 144 17 144 26 0 3 28 7 63 8 68 2 232 30
259 44 10 5 29 9 42 9 24 0 76 18 86 30 3 4 57 23 120 44 203 66 419 182 605
325 88 67 268 250 366 371 105 129 169 214 169 224 0 8 -54 -36 -130 -104
-111 -100 -327 -243 -444 -292 -191 -82 -322 -108 -571 -117 -110 -4 -185 -8
-167 -9 17 -1 32 -6 32 -11 0 -5 -15 -13 -32 -17 -29 -6 -30 -8 -13 -15 11 -4
32 -8 48 -8 34 -1 34 -11 1 -41 -19 -19 -27 -21 -33 -12 -9 15 -23 2 -34 -31
-4 -11 -16 -21 -27 -24 -11 -3 -20 -10 -20 -15 0 -7 -20 -9 -50 -6 -27 3 -50
1 -50 -3 0 -5 -12 -9 -27 -9 -32 0 -70 -19 -43 -21 28 -2 -35 -17 -76 -18 -24
-1 -47 -7 -54 -16 -7 -9 -17 -12 -24 -7 -10 7 -28 8 -66 3 -5 0 -10 -10 -10
-21 0 -11 -3 -20 -6 -20 -10 0 -34 28 -34 40 0 7 -8 10 -20 7 -13 -3 -20 0
-20 8 0 8 -8 16 -17 18 -17 4 -17 5 0 6 30 2 19 17 -31 39 -52 24 -73 41 -112
90 -14 18 -29 32 -33 32 -16 0 -46 45 -47 68 0 12 -15 36 -32 52 -27 24 -30
31 -19 39 12 8 11 15 -10 45 -13 20 -27 36 -31 36 -4 0 -16 21 -27 46 -12 25
-32 55 -45 65 -17 13 -28 37 -36 74 -7 36 -16 55 -26 55 -8 0 -14 10 -14 24 0
14 -5 28 -10 31 -6 3 -15 27 -22 52 -7 30 -17 47 -30 51 -10 2 -18 11 -18 18
0 8 -5 14 -11 14 -8 0 -7 5 2 16 9 10 9 18 2 22 -17 11 3 53 22 46 8 -3 15 -1
15 5 0 6 -3 10 -7 9 -5 -2 -10 2 -13 7 -3 6 6 12 20 13 14 2 30 8 35 14 7 8 6
9 -2 4 -19 -10 -24 10 -11 41 7 15 15 30 18 33 14 12 31 70 28 96 -3 27 -7 23
-62 -56 -78 -112 -401 -433 -519 -517 -49 -34 -125 -77 -170 -94 -70 -28 -98
-33 -189 -37 -100 -4 -124 -11 -97 -28 14 -8 2 -54 -18 -69 -23 -17 -10 -72
22 -97 14 -11 25 -25 25 -31 0 -18 108 -127 125 -127 10 0 30 -24 33 -40 2 -8
10 -21 19 -27 15 -12 15 -13 -2 -13 -17 0 -17 -1 -1 -19 10 -11 29 -22 43 -26
14 -3 32 -13 40 -20 8 -8 23 -15 33 -15 10 0 22 -4 25 -10 10 -17 43 -31 49
-21 3 5 -19 21 -49 36 -30 14 -55 28 -55 30 0 10 77 -17 87 -31 7 -10 13 -14
13 -9 0 5 5 4 12 -3 7 -7 20 -12 29 -12 9 0 22 -7 29 -15 8 -9 9 -15 2 -15 -6
0 -14 5 -17 10 -3 6 -14 10 -23 10 -15 -1 -15 -2 2 -15 11 -8 17 -17 14 -21
-4 -3 -55 20 -116 50 -60 31 -112 56 -115 56 -13 0 -177 100 -312 190 -516
345 -986 932 -1100 1372 -22 83 -45 313 -45 449 0 326 67 519 286 816 9 13 21
20 27 16 6 -3 7 -1 3 5 -4 6 2 20 14 32 11 11 20 22 20 25 0 12 40 48 46 42 8
-8 34 11 34 25 0 6 -7 5 -15 -2 -19 -16 -19 -6 1 25 20 31 40 37 55 19 11 -13
8 -14 -17 -10 -16 4 -22 3 -14 -1 8 -3 20 -13 26 -21 6 -8 16 -12 22 -8 8 5
10 2 6 -8 -3 -9 -1 -16 5 -16 7 0 11 -28 11 -81 0 -79 11 -109 39 -109 7 0 11
-28 11 -75 0 -60 3 -75 15 -75 11 0 15 -12 15 -45 0 -32 4 -45 14 -45 10 0 16
-13 18 -37 3 -36 5 -38 41 -41 36 -3 47 -14 27 -27 -12 -7 -14 -51 -2 -58 4
-2 1 -2 -6 -1 -7 2 -15 -3 -18 -11 -8 -21 4 -48 17 -39 8 4 8 9 1 13 -6 4 2
12 19 20 16 7 29 16 29 21 0 25 329 358 405 410 28 18 52 37 55 40 10 13 129
90 139 90 6 0 11 4 11 9 0 11 113 71 134 71 9 0 16 7 16 15 0 8 6 15 14 15 8
0 29 12 46 27 25 21 34 24 40 13 7 -12 12 -11 28 3 10 9 21 14 24 11 4 -3 18
2 32 11 14 9 31 13 38 9 7 -4 10 -4 6 1 -11 12 11 35 28 28 8 -3 14 -1 14 5 0
5 9 12 21 15 31 8 20 -5 -61 -72 -41 -34 -138 -125 -216 -202 -77 -76 -145
-139 -150 -139 -11 0 -139 -146 -174 -199 -14 -21 -43 -65 -65 -97 -41 -62
-43 -64 -95 -159 -57 -103 -61 -109 -81 -140 -30 -47 -82 -160 -128 -280 -23
-60 -46 -119 -51 -130 -22 -48 -38 -131 -44 -229 -2 -33 -7 -94 -11 -135 -7
-75 9 -187 35 -256 5 -14 10 -35 10 -46 0 -11 6 -26 13 -34 7 -7 26 -66 41
-131 30 -127 30 -129 69 -215 38 -85 84 -103 135 -53 15 16 18 14 42 -15 15
-17 29 -31 32 -31 4 0 30 42 59 93 29 50 77 133 107 182 30 50 120 221 199
380 249 498 543 1050 573 1075 3 3 18 26 32 51 40 69 156 215 247 311 177 187
448 372 550 376 24 0 47 6 51 12 4 7 10 11 14 10 17 -5 85 13 81 21 -3 5 11 8
32 8 21 0 97 1 168 2 136 2 217 -4 300 -21 149 -31 242 -55 255 -66 8 -7 29
-16 45 -20 43 -11 115 -44 115 -52 0 -5 15 -13 34 -20 18 -7 41 -21 51 -32 10
-11 26 -20 36 -20 10 0 22 -6 26 -12 9 -15 37 -33 71 -48 12 -5 25 -17 28 -25
4 -8 17 -15 30 -15 14 0 24 -6 24 -14 0 -19 60 -25 160 -15 47 4 91 8 97 8 23
2 103 93 103 118 0 30 -25 80 -58 116 -34 36 -26 34 50 -10 87 -50 130 -84
219 -171 42 -41 81 -73 87 -71 17 6 -163 308 -262 439 -91 122 -311 355 -433
459 -360 307 -841 503 -1353 550 -108 10 -358 12 -460 4z m-1780 -1063 c0 -5
-5 -10 -11 -10 -5 0 -7 5 -4 10 3 6 8 10 11 10 2 0 4 -4 4 -10z m70 -625 c0
-19 -4 -35 -10 -35 -5 0 -10 16 -10 35 0 19 5 35 10 35 6 0 10 -16 10 -35z
m66 -102 c-10 -10 -19 5 -10 18 6 11 8 11 12 0 2 -7 1 -15 -2 -18z m2727
-2170 c-7 -2 -19 -2 -25 0 -7 3 -2 5 12 5 14 0 19 -2 13 -5z m-1973 -133 c0
-5 -5 -10 -11 -10 -5 0 -7 5 -4 10 3 6 8 10 11 10 2 0 4 -4 4 -10z m50 -50 c8
-5 12 -12 8 -15 -9 -9 -59 6 -52 16 7 12 25 11 44 -1z m1787 -26 c-3 -3 -12
-4 -19 -1 -8 3 -5 6 6 6 11 1 17 -2 13 -5z m-1524 -144 c42 -16 80 -30 85 -30
6 0 23 -7 39 -14 15 -8 37 -18 47 -21 10 -3 16 -8 13 -11 -8 -8 -245 81 -263
99 -12 12 2 8 79 -23z"/>
<path d="M3315 8990 c-3 -5 1 -10 10 -10 9 0 13 5 10 10 -3 6 -8 10 -10 10 -2
0 -7 -4 -10 -10z"/>
<path d="M3330 8956 c0 -2 7 -6 15 -10 8 -3 15 -1 15 4 0 6 -7 10 -15 10 -8 0
-15 -2 -15 -4z"/>
<path d="M3577 8474 c3 -7 9 -14 14 -14 14 0 10 17 -5 23 -10 4 -13 1 -9 -9z"/>
<path d="M3570 8428 c0 -4 7 -8 15 -8 8 0 15 4 15 8 0 5 -7 9 -15 9 -8 0 -15
-4 -15 -9z"/>
<path d="M5046 7095 c-22 -34 -20 -43 4 -15 18 21 26 40 16 40 -2 0 -11 -11
-20 -25z"/>
<path d="M6168 6323 c6 -2 18 -2 25 0 6 3 1 5 -13 5 -14 0 -19 -2 -12 -5z"/>
<path d="M6178 6293 c12 -2 32 -2 45 0 12 2 2 4 -23 4 -25 0 -35 -2 -22 -4z"/>
<path d="M5725 6090 c26 -11 35 -12 35 -2 0 4 -12 8 -27 9 -24 1 -25 1 -8 -7z"/>
<path d="M4468 4651 c-83 -6 -78 -3 -139 -89 -39 -55 -44 -76 -44 -198 0 -75
4 -106 15 -119 14 -17 13 -18 -5 -11 -102 41 -274 -24 -371 -141 -60 -72 -139
-195 -149 -233 -1 -3 -9 -21 -17 -40 -9 -19 -20 -53 -24 -75 -4 -22 -13 -44
-19 -50 -13 -10 -37 -176 -36 -248 2 -123 13 -192 47 -295 14 -42 57 -91 80
-92 7 0 14 -6 17 -14 14 -35 223 -65 278 -40 13 6 42 17 64 24 22 7 59 25 83
41 23 16 75 44 115 62 150 69 253 212 276 378 6 46 16 248 21 449 6 201 13
440 17 533 l6 167 -69 -2 c-38 -1 -104 -4 -146 -7z m-258 -760 c0 -9 4 -21 9
-26 24 -27 43 -325 20 -325 -7 0 -9 -10 -5 -25 4 -15 -1 -38 -14 -62 -12 -23
-18 -49 -15 -66 5 -25 3 -27 -25 -27 -109 0 -148 255 -70 462 26 71 65 115 85
98 8 -7 15 -20 15 -29z"/>
<path d="M2425 4423 c-160 -13 -159 -12 -183 -46 -12 -18 -37 -48 -55 -67 -18
-19 -41 -48 -52 -65 -29 -44 -95 -174 -111 -218 -7 -20 -20 -52 -27 -70 -8
-17 -20 -52 -27 -77 -8 -25 -20 -52 -27 -61 -7 -8 -13 -21 -13 -28 0 -12 -30
-80 -50 -111 -9 -16 -49 -104 -70 -158 -7 -18 -18 -31 -23 -29 -6 2 -31 55
-55 118 -25 63 -76 193 -114 289 -39 96 -95 238 -125 315 -31 77 -61 146 -69
154 -20 22 -385 -2 -399 -26 -5 -10 -31 -37 -57 -61 -44 -41 -118 -148 -118
-170 0 -6 -7 -18 -16 -26 -8 -9 -18 -33 -20 -53 -3 -21 -9 -47 -14 -58 -23
-55 -32 -98 -37 -182 -3 -51 -9 -93 -13 -93 -4 0 -11 -30 -14 -67 -4 -38 -9
-93 -12 -123 -4 -30 -10 -60 -15 -66 -5 -6 -4 -15 3 -22 9 -9 9 -17 0 -34 -7
-13 -12 -39 -11 -58 1 -19 -4 -114 -11 -210 -18 -260 -8 -309 66 -331 24 -8
44 -16 44 -20 0 -3 33 -1 73 6 67 11 105 27 256 110 53 30 82 51 75 57 -6 6
11 12 62 23 31 6 32 8 38 68 3 34 9 120 12 190 4 70 8 126 10 124 2 -1 4 -36
5 -77 1 -41 9 -92 17 -113 8 -20 12 -49 9 -62 -2 -14 0 -28 4 -31 5 -3 9 -16
9 -30 0 -36 47 -134 64 -134 8 0 16 -7 18 -16 6 -29 76 -45 137 -33 68 14 210
88 259 136 7 7 23 13 35 13 12 1 32 6 44 13 25 14 96 147 178 332 31 72 61
135 67 140 10 10 2 -51 -12 -90 -4 -11 -6 -52 -4 -92 2 -43 0 -74 -7 -78 -7
-5 -7 -11 1 -20 8 -9 8 -19 1 -32 -12 -21 -32 -198 -25 -216 9 -22 76 -58 93
-51 9 4 19 7 23 6 15 -3 99 32 211 88 65 33 125 60 133 60 8 0 19 11 24 25 8
21 18 352 34 1128 l5 217 -92 -2 c-51 -1 -110 -3 -132 -5z m-225 -898 c0 -8
-4 -15 -10 -15 -5 0 -7 7 -4 15 4 8 8 15 10 15 2 0 4 -7 4 -15z"/>
<path d="M8110 4417 c-72 -21 -113 -44 -187 -106 -101 -86 -202 -253 -217
-361 -4 -25 -9 -61 -12 -80 -12 -76 -23 -390 -14 -390 4 0 12 -17 18 -39 17
-56 59 -127 85 -143 46 -29 113 -43 207 -43 86 0 100 3 155 31 33 17 87 39
120 49 33 9 78 26 100 37 49 25 135 87 135 97 0 5 -18 46 -40 93 l-39 85 -63
-31 c-80 -39 -184 -47 -238 -19 -40 21 -86 84 -93 128 l-6 31 57 1 c85 1 224
21 232 34 3 4 54 15 113 24 59 9 114 18 122 21 22 9 28 62 23 197 -4 110 -8
130 -37 198 -35 85 -80 138 -144 171 -52 27 -206 35 -277 15z m36 -276 c43
-26 100 -85 106 -109 6 -23 -5 -26 -146 -38 l-79 -7 8 39 c10 56 54 134 74
134 3 0 20 -9 37 -19z"/>
<path d="M7262 4380 c-100 -15 -187 -50 -248 -99 -80 -65 -110 -112 -135 -211
-11 -47 -25 -88 -31 -91 -14 -9 -3 -101 19 -155 17 -41 87 -104 116 -104 8 0
17 -3 19 -8 2 -4 36 -27 76 -51 84 -50 136 -98 147 -132 4 -13 12 -27 18 -30
5 -4 -6 -12 -25 -18 -45 -15 -107 -2 -202 41 l-68 32 -29 -35 c-35 -40 -69
-102 -69 -124 0 -8 -4 -15 -10 -15 -5 0 -10 -8 -10 -18 0 -10 -5 -23 -11 -29
-8 -8 -6 -24 6 -59 20 -60 29 -71 73 -90 38 -15 187 -20 196 -5 3 5 36 14 72
21 37 6 92 24 123 39 31 16 77 36 102 46 74 27 160 103 199 176 29 56 34 74
38 160 4 87 2 102 -20 150 -14 30 -42 71 -64 92 -38 37 -60 49 -209 117 -109
49 -142 90 -114 141 9 17 13 18 27 7 13 -11 15 -11 7 2 -6 11 -3 10 11 -2 12
-11 28 -15 42 -11 12 3 28 0 36 -6 16 -14 46 -4 46 15 0 25 42 21 81 -7 l27
-19 39 47 c58 71 93 121 93 130 0 5 -13 18 -28 30 -95 70 -201 93 -340 73z"/>
<path d="M6195 4350 c-27 -4 -67 -14 -87 -23 -102 -43 -219 -152 -265 -247
-54 -111 -102 -233 -114 -285 -6 -27 -14 -59 -19 -70 -22 -55 -31 -104 -26
-135 14 -78 28 -208 29 -255 0 -35 7 -61 23 -87 13 -21 24 -41 24 -45 0 -5 21
-18 48 -30 62 -30 167 -40 240 -23 76 17 230 78 268 107 33 24 73 34 44 10
-16 -13 -20 -54 -7 -74 5 -7 5 -18 2 -23 -19 -31 126 -14 199 22 22 11 60 26
86 34 26 8 52 20 57 27 6 6 15 182 22 392 6 209 14 452 18 539 l6 159 -124 -7
c-109 -6 -126 -10 -140 -28 l-16 -21 -44 26 c-36 21 -146 51 -168 46 -3 -1
-28 -5 -56 -9z m31 -315 c4 -8 10 -15 15 -15 18 0 46 -35 53 -65 7 -28 11 -47
35 -140 5 -22 8 -49 6 -60 -9 -43 -13 -145 -5 -145 10 0 -24 -95 -40 -115 -34
-41 -120 -43 -158 -2 -68 72 -69 271 -3 448 32 83 83 133 97 94z"/>
<path d="M5225 4273 c-167 -26 -266 -86 -360 -217 -49 -69 -97 -168 -119 -248
-40 -140 -62 -303 -44 -314 5 -4 7 -17 4 -30 -4 -13 1 -47 10 -75 13 -37 14
-53 5 -62 -13 -13 -15 -31 -2 -22 10 5 31 -54 31 -86 0 -30 118 -125 169 -135
17 -4 34 -11 37 -15 3 -5 42 -9 87 -9 95 0 224 38 260 77 12 12 30 23 39 23
31 0 176 82 214 121 l38 39 -24 72 c-13 39 -31 80 -40 90 -15 19 -17 19 -73
-15 -71 -43 -141 -61 -213 -55 -61 5 -96 26 -132 78 -42 62 -40 101 4 101 10
0 55 -1 99 -1 44 -1 107 6 140 14 76 18 284 82 292 89 3 3 7 52 10 109 9 180
-26 288 -124 387 -45 45 -69 60 -107 70 -57 14 -158 21 -201 14z m28 -307 c21
-14 35 -36 43 -64 12 -40 12 -42 -9 -47 -24 -5 -173 -25 -188 -25 -13 0 -1 46
28 107 23 49 26 52 60 51 19 -1 49 -11 66 -22z"/>
<path d="M3235 4160 c-129 -14 -203 -47 -299 -131 -64 -56 -161 -189 -182
-248 -9 -25 -20 -55 -24 -66 -44 -108 -67 -370 -42 -479 8 -33 16 -77 19 -96
3 -19 10 -42 17 -50 6 -8 20 -31 30 -50 26 -47 47 -66 82 -73 16 -3 49 -10 74
-16 59 -13 172 -14 241 -1 48 9 230 89 204 90 -5 0 22 15 60 33 39 17 91 47
115 66 25 19 47 36 49 38 3 2 -75 170 -84 181 -2 2 -32 -11 -66 -29 -74 -37
-172 -49 -234 -29 -48 16 -115 82 -115 114 0 23 2 23 118 29 119 6 215 27 295
66 23 11 62 24 86 30 24 5 47 15 51 22 15 23 21 176 11 259 -12 90 -57 200
-103 251 -36 40 -99 77 -143 84 -76 12 -90 12 -160 5z m-16 -360 c23 -19 39
-40 37 -47 -3 -7 -1 -13 5 -13 6 0 8 -4 5 -9 -3 -4 -42 -12 -87 -15 -45 -4
-88 -10 -97 -13 -12 -5 -14 0 -8 30 9 48 32 101 51 121 14 14 17 14 34 -2 9
-9 36 -33 60 -52z"/>
</g>
</svg>
